<?xml version="1.0" encoding="iso-8859-1"?>
<!-- Generator: Adobe Illustrator 16.0.0, SVG Export Plug-In . SVG Version: 6.00 Build 0)  -->
<!DOCTYPE svg PUBLIC "-//W3C//DTD SVG 1.1//EN" "http://www.w3.org/Graphics/SVG/1.1/DTD/svg11.dtd">
<svg version="1.1" id="Layer_1" xmlns="http://www.w3.org/2000/svg" xmlns:xlink="http://www.w3.org/1999/xlink" x="0px" y="0px"
	 width="120px" height="50px" viewBox="0 0 120 50" style="enable-background:new 0 0 120 50;" xml:space="preserve">
<g>
	<path style="fill:#FFFFFF;" d="M8.556,17.962H5.795v-4.457h16.104v4.457h-2.76l0.719,4.716h4.198v-9.173h5.751v24.328h-5.751
		V27.566h-3.451l1.582,10.267h-5.895l-2.444-19.325l-2.444,19.325H5.507L8.556,17.962z"/>
	<path style="fill:#FFFFFF;" d="M43.178,26.934c0.211-1.36,0.407-2.832,0.589-4.414s0.321-3.072,0.417-4.472H33.976v-4.543h16.391
		c-0.096,2.377-0.235,4.687-0.417,6.93s-0.427,4.41-0.733,6.499H43.178z M39.871,28.429v4.976l7.189-0.029
		c1.878-0.019,3.776-0.096,5.693-0.229c1.916-0.134,3.709-0.335,5.377-0.604v5.292H34.12v-9.404H39.871z M52.236,13.505h5.752
		v16.851h-5.752V13.505z"/>
	<path style="fill:#FFFFFF;" d="M62.301,20.119c0-0.997,0.163-1.921,0.489-2.775c0.325-0.853,0.819-1.582,1.48-2.186
		c0.662-0.604,1.5-1.078,2.517-1.423c1.016-0.345,2.204-0.518,3.565-0.518s2.55,0.172,3.566,0.518
		c1.016,0.345,1.854,0.819,2.516,1.423c0.662,0.604,1.155,1.333,1.481,2.186c0.325,0.854,0.488,1.778,0.488,2.775v2.56h2.014v-9.173
		h5.751v24.328h-5.751V27.566h-2.014v3.652c0,1.016-0.163,1.946-0.488,2.789c-0.326,0.844-0.819,1.567-1.481,2.171
		c-0.661,0.604-1.5,1.079-2.516,1.424c-1.017,0.345-2.205,0.518-3.566,0.518s-2.55-0.173-3.565-0.518
		c-1.017-0.345-1.854-0.819-2.517-1.424c-0.661-0.604-1.155-1.327-1.48-2.171c-0.326-0.843-0.489-1.773-0.489-2.789V20.119z
		 M70.353,14.137c0,2.109-0.226,3.892-0.676,5.349s-1.03,2.641-1.739,3.551c-0.71,0.911-1.51,1.572-2.401,1.984
		c-0.892,0.413-1.769,0.638-2.631,0.676c0.862,0.039,1.739,0.264,2.631,0.676c0.892,0.412,1.691,1.069,2.401,1.97
		c0.709,0.901,1.289,2.075,1.739,3.522c0.45,1.448,0.676,3.226,0.676,5.335c0-2.109,0.226-3.887,0.676-5.335
		c0.45-1.447,1.03-2.626,1.74-3.537c0.709-0.91,1.505-1.571,2.387-1.983s1.754-0.637,2.617-0.676
		c-0.863-0.039-1.735-0.264-2.617-0.676s-1.678-1.069-2.387-1.97c-0.71-0.901-1.29-2.08-1.74-3.537S70.353,16.247,70.353,14.137z"/>
	<path style="fill:#FFFFFF;" d="M90.481,13.505h6.355v4.457h-1.869v15.413h1.869v4.458h-6.355V13.505z M97.383,13.505h6.212v4.457
		h-1.726v15.413c0.269,0,0.551-0.038,0.849-0.114c0.297-0.077,0.589-0.173,0.877-0.288v4.86h-6.212V13.505z M104.256,13.505h4.572
		v9.461h0.949v-9.461h4.572v24.328h-4.572v-9.979h-0.949v9.979h-4.572V13.505z"/>
</g>
</svg>
